<svg width="50" height="50" viewBox="0 0 50 50" fill="none" xmlns="http://www.w3.org/2000/svg">
<path d="M30 40L22 48L12 38L2 28L10 20L20 30L23 27L21 25L25 21L27 23L30 20L20 10L28 2L38 12L48 22L40 30L30 20L27 23L29 25L25 29L23 27L20 30L30 40Z" fill="white"/>
<path d="M20 30L30 40L22 48L12 38M20 30L10 20L2 28L12 38M20 30L12 38M20 30L23 27M30 20L20 10L28 2L38 12M30 20L40 30L48 22L38 12M30 20L38 12M30 20L27 23M23 27L21 25L25 21L27 23M23 27L25 29L29 25L27 23" stroke="black" stroke-width="2" stroke-linejoin="round"/>
</svg>
