<svg width="25" height="26" viewBox="0 0 25 26" fill="none" xmlns="http://www.w3.org/2000/svg">
<path d="M14.7826 20.3478L11.1304 24L6.56522 19.4348L2 14.8696L5.65217 11.2174L10.2174 15.7826L14.7826 11.2174L10.2174 6.65217L13.8696 3L18.4348 7.56522L23 12.1304L19.3478 15.7826L14.7826 11.2174L10.2174 15.7826L14.7826 20.3478Z" fill="white"/>
<path d="M10.2174 15.7826L14.7826 20.3478L11.1304 24L6.56522 19.4348M10.2174 15.7826L5.65217 11.2174L2 14.8696L6.56522 19.4348M10.2174 15.7826L14.7826 11.2174M10.2174 15.7826L6.56522 19.4348M14.7826 11.2174L10.2174 6.65217L13.8696 3L18.4348 7.56522M14.7826 11.2174L19.3478 15.7826L23 12.1304L18.4348 7.56522M14.7826 11.2174L18.4348 7.56522" stroke="black" stroke-width="2" stroke-linejoin="round"/>
</svg>
