<svg width="80" height="80" viewBox="0 0 80 80" fill="none" xmlns="http://www.w3.org/2000/svg">
<path d="M8 38L14 32L31 49L34 46L31 43L43 31L46 34L49 31L32 14L38 8L44 2L61 19L78 36L72 42L66 48L49 31L46 34L49 37L37 49L34 46L31 49L48 66L42 72L36 78L19 61L2 44L8 38Z" fill="white"/>
<path d="M8 38L14 32L31 49M8 38L2 44L19 61M8 38L25 55M42 72L36 78L19 61M42 72L48 66L31 49M42 72L25 55M19 61L25 55M25 55L31 49M31 49L34 46M34 46L37 49L49 37L46 34M34 46L31 43L43 31L46 34M46 34L49 31M49 31L66 48L72 42M49 31L32 14L38 8M49 31L55 25M72 42L78 36L61 19M72 42L55 25M61 19L44 2L38 8M61 19L55 25M38 8L55 25" stroke="black" stroke-width="3" stroke-linejoin="round"/>
</svg>
